<?xml version="1.0" encoding="utf-8"?>
<!-- Generator: Adobe Illustrator 26.0.2, SVG Export Plug-In . SVG Version: 6.00 Build 0)  -->
<svg version="1.1" id="Layer_1" xmlns="http://www.w3.org/2000/svg" xmlns:xlink="http://www.w3.org/1999/xlink" x="0px" y="0px"
	 viewBox="0 0 128 128" style="enable-background:new 0 0 128 128;" xml:space="preserve">
<style type="text/css">
	.st0{fill:none;stroke:#E26957;stroke-width:2;stroke-linecap:round;stroke-linejoin:round;stroke-miterlimit:10;}
</style>
<g>
	<path class="st0" d="M50.8,44.3c-3.5-3.5-5.7-8.3-5.7-13.7c0-10.6,8.6-19.2,19.2-19.2S83.6,20,83.6,30.6c0,5.3-2.2,10.1-5.6,13.6"
		/>
	<path class="st0" d="M57.9,12c-0.2-0.7-0.3-1.4-0.3-2.1c0-3.8,3.1-6.8,6.8-6.8c3.8,0,6.8,3.1,6.8,6.8c0,0.8-0.1,1.5-0.3,2.2"/>
	<path class="st0" d="M66.3,53.4h-4.2c-6.3,0-11.5-5.2-11.5-11.5V28.3c0-1.8,2.5-1.5,3.7-2.7c1.2-1.2,1-3.8,2.8-3.8h14.2
		c0.9,0,1.6,2.4,3,3.8c1.4,1.4,3.5,1.8,3.5,2.7v13.6C77.9,48.3,72.7,53.4,66.3,53.4z"/>
	<path class="st0" d="M37.1,72.6l-3.7,14.5c-0.4,1.8-0.5,3.6-0.2,5.4c0.6,3,2.2,6.8,6.9,6.8c9.4,0,48.2,0,48.2,0s6.9,0.1,7.3-8.6
		c0.7-14.4-7.5-36.5-31.6-37c-8.5-0.2-19.7,8.1-19.7,8.1"/>
	<path class="st0" d="M88.7,89.6c0,0-17.3,2.3-22.2-6.2"/>
	<path class="st0" d="M39.6,89.6c0,0,17.3,2.3,22.2-6.2"/>
	<line class="st0" x1="44.6" y1="89.6" x2="48.9" y2="70.6"/>
	<path class="st0" d="M75.5,56.9c0,0-3.8,21.8-28.2,24"/>
	<line class="st0" x1="79.8" y1="71.4" x2="84.1" y2="89.3"/>
	<line class="st0" x1="81.5" y1="74.3" x2="92.1" y2="74.3"/>
	<path class="st0" d="M39.2,68.2c0,0,0.9-1.8,1.8-2.6"/>
	<path class="st0" d="M63.3,89.6c7.4,0,7.9,9.7,0.7,9.7"/>
	<line class="st0" x1="32.7" y1="124.5" x2="32.7" y2="111"/>
	<path class="st0" d="M100.6,109.1l-32.2,8.2c0,0-0.9-6.1-7.5-6.1s-3.6,1.8-9.3,4.3L28,109.1"/>
	<path class="st0" d="M46.3,124.9c0,0-3.9-0.5-3.9-4.1s9.4-5.3,9.4-5.3"/>
	<path class="st0" d="M33.6,95.1c-24.9,0-24.4,29.7-1.6,29.7"/>
	<path class="st0" d="M95.1,95.1c24.9,0,24.4,29.7,1.6,29.7"/>
	<line class="st0" x1="2.9" y1="124.9" x2="125.1" y2="124.9"/>
	<line class="st0" x1="95.6" y1="110.4" x2="95.6" y2="124.8"/>
</g>
</svg>
