<?xml version="1.0" encoding="utf-8"?>
<!-- Generator: Adobe Illustrator 26.0.2, SVG Export Plug-In . SVG Version: 6.00 Build 0)  -->
<svg version="1.1" id="Layer_1" xmlns="http://www.w3.org/2000/svg" xmlns:xlink="http://www.w3.org/1999/xlink" x="0px" y="0px"
	 viewBox="0 0 128 128" style="enable-background:new 0 0 128 128;" xml:space="preserve">
<style type="text/css">
	.st0{fill:none;stroke:#E26957;stroke-width:2;stroke-linecap:round;stroke-linejoin:round;stroke-miterlimit:10;}
</style>
<g>
	<path class="st0" d="M63.6,7c0,0-54.9,40.5-0.8,98.6c22.1,23.7,48.9,17.2,61.8,0.2c-3-10.8-20-14.6-20-14.6"/>
	<path class="st0" d="M63.9,7c0,0,54.9,40.5,0.8,98.6c-22.1,23.7-48.9,17.2-61.8,0.2c3-10.8,20-14.6,20-14.6"/>
	<path class="st0" d="M9,69.7C4.8,60.3,2.4,49.1,2.4,36c23.6-4.2,37.6,5.3,37.6,5.3"/>
	<path class="st0" d="M12.6,76.9c-0.6-0.9,0,0-0.5-0.9"/>
	<path class="st0" d="M87.4,41.9c0,0,19.8-9.7,38.2-6.4c0,75.1-76.5,90-108.9,47.3"/>
	<path class="st0" d="M78.8,22.2c0,0,15.2-7.4,19.4-8c4.2,4.9,6.7,13.5,7.6,21.1"/>
	<path class="st0" d="M49,22.2c0,0-15.2-7.4-19.4-8c-4.2,4.9-6.7,13.5-7.6,21.1"/>
	<line class="st0" x1="63.6" y1="54.1" x2="63.6" y2="105.6"/>
	<line class="st0" x1="63.6" y1="33.4" x2="63.6" y2="43.4"/>
	<line class="st0" x1="97.6" y1="68.1" x2="74.8" y2="94"/>
	<line class="st0" x1="110.2" y1="53.9" x2="102.8" y2="62.3"/>
	<line class="st0" x1="30.7" y1="68.3" x2="53.4" y2="94"/>
	<line class="st0" x1="18" y1="53.9" x2="25.2" y2="62.1"/>
</g>
</svg>
